<?xml version="1.0" encoding="utf-8"?>
<!-- Generator: Adobe Illustrator 23.0.1, SVG Export Plug-In . SVG Version: 6.00 Build 0)  -->
<svg version="1.1" id="Layer_1" xmlns="http://www.w3.org/2000/svg" xmlns:xlink="http://www.w3.org/1999/xlink" x="0px" y="0px"
	 viewBox="0 0 95 100" style="enable-background:new 0 0 95 100;" xml:space="preserve">
<style type="text/css">
	.st0{fill:#00253A;}
	.st1{fill:none;stroke:#00253A;stroke-width:3.6888;stroke-miterlimit:10;}
	.st2{fill:none;stroke:#00253A;stroke-width:4;stroke-miterlimit:10;}
</style>
<g>
	<g>
		<path class="st0" d="M52.6,7.1l0,3.7h0c7.5,0,13.6,3.7,18.2,10.9c3.6,5.8,4.9,11.7,4.9,11.7l0.4,1.7l1.6,0.8
			c0.2,0.1,2.7,1.4,6,2.7c-1.4,0.6-2.2,1-2.2,1l-1.5,0.6l-0.6,1.5c0,0-0.2,0.6-0.7,1.6c-1.3-3.3-2.5-5.8-2.6-5.9l-0.9-1.6l-1.8-0.3
			c-1-0.2-22.6-3.9-22.5-24.6c0.6,0,1.1-0.1,1.7-0.1L52.6,7.1 M52.6,7.1c-1.6,0-3.3,0.1-5.2,0.5c-2.7,27.1,25.4,31.6,25.4,31.6
			S77,47,77.5,53.8c3.6-6.3,5.3-10.8,5.3-10.8s4.8-2,10.9-5.4c-6.4-0.8-14.4-4.9-14.4-4.9S74,7.1,52.6,7.1L52.6,7.1z"/>
	</g>
	<ellipse transform="matrix(0.7071 -0.7071 0.7071 0.7071 5.3594 45.6964)" class="st1" cx="57.8" cy="16.4" rx="0.7" ry="0.9"/>
</g>
<g>
	<line class="st2" x1="22.5" y1="56.4" x2="22.5" y2="15.9"/>
	<g>
		<path class="st2" d="M25.5,10.4c0,3.3-3,6-3,6s-3-2.7-3-6s3-6,3-6S25.5,7.1,25.5,10.4z"/>
		<g>
			<path class="st2" d="M29.6,20.6c-2.3,2.3-6.4,2.1-6.4,2.1s-0.2-4,2.1-6.4s6.4-2.1,6.4-2.1S32,18.2,29.6,20.6z"/>
			<path class="st2" d="M29.6,28.6c-2.3,2.3-6.4,2.1-6.4,2.1s-0.2-4,2.1-6.4s6.4-2.1,6.4-2.1S32,26.2,29.6,28.6z"/>
			<path class="st2" d="M29.6,36.6c-2.3,2.3-6.4,2.1-6.4,2.1s-0.2-4,2.1-6.4s6.4-2.1,6.4-2.1S32,34.2,29.6,36.6z"/>
			<path class="st2" d="M29.6,44.6c-2.3,2.3-6.4,2.1-6.4,2.1s-0.2-4,2.1-6.4s6.4-2.1,6.4-2.1S32,42.2,29.6,44.6z"/>
		</g>
		<g>
			<path class="st2" d="M15.4,20.6c2.3,2.3,6.4,2.1,6.4,2.1s0.2-4-2.1-6.4s-6.4-2.1-6.4-2.1S13,18.2,15.4,20.6z"/>
			<path class="st2" d="M15.4,28.6c2.3,2.3,6.4,2.1,6.4,2.1s0.2-4-2.1-6.4s-6.4-2.1-6.4-2.1S13,26.2,15.4,28.6z"/>
			<path class="st2" d="M15.4,36.6c2.3,2.3,6.4,2.1,6.4,2.1s0.2-4-2.1-6.4s-6.4-2.1-6.4-2.1S13,34.2,15.4,36.6z"/>
			<path class="st2" d="M15.4,44.6c2.3,2.3,6.4,2.1,6.4,2.1s0.2-4-2.1-6.4s-6.4-2.1-6.4-2.1S13,42.2,15.4,44.6z"/>
		</g>
	</g>
</g>
<g>
	<path class="st2" d="M91.6,85.3L80.9,96c-1.3,1.3-3.5,1.3-4.8,0L57.5,77.4c-2.7-2.7-4.6-6-5.4-9.7c-0.6-2.7-1.2-5.3-4-8.1l7.1-7.1
		c2.8,2.8,5.5,3.4,8.1,4c3.7,0.8,7,2.7,9.7,5.4l18.6,18.6C93,81.8,93,83.9,91.6,85.3z"/>
	<path class="st2" d="M51.6,48.9L44.6,56c-0.4,0.4-0.4,1,0,1.4l2.1,2.1c0.4,0.4,1,0.4,1.4,0l7.1-7.1c0.4-0.4,0.4-1,0-1.4l-2.1-2.1
		C52.7,48.5,52,48.5,51.6,48.9z"/>
</g>
<g>
	<g>
		<path class="st0" d="M32.9,82c-0.5,3.5-2,6.5-4.6,8.8c-1.8,1.6-3.6,2.5-4.8,3c-2.5-1-8.3-4.1-9.4-11.7L32.9,82 M37,78L10,78
			C9,94,23.5,98,23.5,98S38,94,37,78L37,78z"/>
	</g>
	<g>
		<path class="st0" d="M9,79.7c0-8,6.5-14.5,14.5-14.5c8,0,14.5,6.5,14.5,14.5C38,87.7,9,87.7,9,79.7z"/>
	</g>
	<line class="st2" x1="24" y1="68" x2="24" y2="63"/>
</g>
</svg>
